<mxfile host="65bd71144e">
    <diagram id="E-Rdp8klzEa-9GULn6kW" name="Page-1">
        <mxGraphModel dx="682" dy="591" grid="1" gridSize="10" guides="1" tooltips="1" connect="1" arrows="1" fold="1" page="1" pageScale="1" pageWidth="850" pageHeight="1100" math="0" shadow="0">
            <root>
                <mxCell id="0"/>
                <mxCell id="1" parent="0"/>
                <mxCell id="2" value="Server" style="whiteSpace=wrap;html=1;aspect=fixed;align=center;labelPosition=center;verticalLabelPosition=top;verticalAlign=bottom;" vertex="1" parent="1">
                    <mxGeometry x="20" y="20" width="220" height="220" as="geometry"/>
                </mxCell>
                <mxCell id="4" value="FastAPI" style="whiteSpace=wrap;html=1;aspect=fixed;" vertex="1" parent="1">
                    <mxGeometry x="50" y="60" width="80" height="80" as="geometry"/>
                </mxCell>
                <mxCell id="5" value="Redis" style="shape=cylinder3;whiteSpace=wrap;html=1;boundedLbl=1;backgroundOutline=1;size=15;rotation=0;" vertex="1" parent="1">
                    <mxGeometry x="150" y="60" width="60" height="80" as="geometry"/>
                </mxCell>
            </root>
        </mxGraphModel>
    </diagram>
</mxfile>